# xmcd CD database file
# Copyright (C) 1993-1996 Ti Kan
#
# Track frame offsets:
# 150
# 11902
# 22787
# 36717
# 50460
# 63795
# 74992
# 88855
# 102905
# 117107
# 131402
# 145550
# 159600
# 172470
# 186035
# 198637
# 211332
# 224120
# 237602
# 251217
# 263397
# 277250
#
# Disc length: 3882 seconds
#
# Revision: 0
# Processed by: cddbd v1.4b41PL1 Copyright (c) Steve Scherf et al.
# Submitted via: inCDius 1.1b5
#
DISCID=610f2816
DTITLE=Ernest Tubb  - Let's Say Goodbye Like We Said Hello - Disc 3
DYEAR=1900
DGENRE=
TTITLE0=G-I-R-L Spells Trouble
TTITLE1=You Don't Have To Be A Baby To Cry
TTITLE2=Mother, The Queen Of My Heart
TTITLE3=Goodnight Irene
TTITLE4=(Remember Me) I'm The One Who Loves You
TTITLE5=I Need Attention Bad
TTITLE6=I'm Lonely And Blue
TTITLE7=Why Did You Give Me Your Love ?
TTITLE8=I'm Free From The Chain Gang Now
TTITLE9=Why Should I Be Lonely
TTITLE10=Hobo's Meditation
TTITLE11=Good Morning Irene
TTITLE12=The Lovebug Itch
TTITLE13=Don't Stay Too Long
TTITLE14=I'm Steppin' Out Of The Picture
TTITLE15=May The Good Lord Bless And Keep You
TTITLE16=When It's Prayer Meetin' Time In The Hollow
TTITLE17=A Drunkard's Child
TTITLE18=Any Old Time
TTITLE19=If You Want Some Lovin'
TTITLE20=So Long (It's Been Good To Know  You)
TTITLE21=The Chicken Song
EXTD=
EXTT0=
EXTT1=
EXTT2=
EXTT3=With Red Foley
EXTT4=
EXTT5=
EXTT6=
EXTT7=
EXTT8=
EXTT9=
EXTT10=
EXTT11=With Red Foley, Minnie Pearl
EXTT12=With Red Foley, Minnie Pearl
EXTT13=
EXTT14=
EXTT15=
EXTT16=
EXTT17=
EXTT18=
EXTT19=
EXTT20=With Red Foley
EXTT21=With Red Foley
PLAYORDER=
